<svg width="25" height="20" viewBox="0 0 25 20" fill="none" xmlns="http://www.w3.org/2000/svg">
<path d="M5.072 15.66C3.696 15.66 2.688 15.26 2.048 14.46C1.408 13.66 1.06667 12.6093 1.024 11.308C1.01333 11.02 1.008 10.556 1.008 9.916C1.008 9.25467 1.01333 8.77467 1.024 8.476C1.056 7.196 1.39733 6.156 2.048 5.356C2.69867 4.54533 3.70667 4.14 5.072 4.14C6.448 4.14 7.46133 4.54533 8.112 5.356C8.76267 6.156 9.104 7.196 9.136 8.476C9.15733 9.07333 9.168 9.55333 9.168 9.916C9.168 10.268 9.15733 10.732 9.136 11.308C9.09333 12.6093 8.752 13.66 8.112 14.46C7.472 15.26 6.45867 15.66 5.072 15.66ZM5.072 14.284C5.872 14.284 6.47467 14.0173 6.88 13.484C7.296 12.9507 7.51467 12.1987 7.536 11.228C7.55733 10.6093 7.568 10.1613 7.568 9.884C7.568 9.58533 7.55733 9.148 7.536 8.572C7.51467 7.612 7.30133 6.86 6.896 6.316C6.49067 5.772 5.88267 5.5 5.072 5.5C4.272 5.5 3.664 5.772 3.248 6.316C2.84267 6.86 2.62933 7.612 2.608 8.572L2.592 9.884L2.608 11.228C2.62933 12.1987 2.84267 12.9507 3.248 13.484C3.664 14.0173 4.272 14.284 5.072 14.284Z" fill="#444444"/>
<path d="M16.208 15.5C16.1013 15.5 16.0107 15.468 15.936 15.404C15.872 15.3293 15.84 15.2387 15.84 15.132V13.084H14.608C14.5013 13.084 14.4107 13.052 14.336 12.988C14.272 12.9133 14.24 12.8227 14.24 12.716V12.348C14.24 12.2413 14.272 12.156 14.336 12.092C14.4107 12.0173 14.5013 11.98 14.608 11.98H15.84V11.068H14.608C14.5013 11.068 14.4107 11.036 14.336 10.972C14.272 10.8973 14.24 10.8067 14.24 10.7V10.156C14.24 10.0493 14.272 9.964 14.336 9.9C14.4107 9.82533 14.5013 9.788 14.608 9.788H15.84V4.684C15.84 4.56667 15.872 4.476 15.936 4.412C16.0107 4.33733 16.1013 4.3 16.208 4.3H20.272C21.4773 4.3 22.4267 4.59333 23.12 5.18C23.8133 5.76667 24.16 6.61467 24.16 7.724C24.16 8.812 23.8133 9.644 23.12 10.22C22.4373 10.7853 21.488 11.068 20.272 11.068H17.44V11.98H20.528C20.6347 11.98 20.72 12.0173 20.784 12.092C20.8587 12.156 20.896 12.2413 20.896 12.348V12.716C20.896 12.8227 20.8587 12.9133 20.784 12.988C20.72 13.052 20.6347 13.084 20.528 13.084H17.44V15.132C17.44 15.2387 17.4027 15.3293 17.328 15.404C17.2533 15.468 17.1627 15.5 17.056 15.5H16.208ZM20.192 9.788C20.9707 9.788 21.5573 9.612 21.952 9.26C22.3573 8.908 22.56 8.396 22.56 7.724C22.56 7.052 22.3627 6.54 21.968 6.188C21.5733 5.82533 20.9813 5.644 20.192 5.644H17.424V9.788H20.192Z" fill="#444444"/>
</svg>
