<svg width="100" height="15" viewBox="0 0 100 15" fill="none" xmlns="http://www.w3.org/2000/svg">
<path d="M7.08203 1.24219L5.30469 4.87891L1.28516 5.45312C0.574219 5.5625 0.300781 6.4375 0.820312 6.95703L3.69141 9.77344L3.00781 13.7383C2.89844 14.4492 3.66406 14.9961 4.29297 14.668L7.875 12.7812L11.4297 14.668C12.0586 14.9961 12.8242 14.4492 12.7148 13.7383L12.0312 9.77344L14.9023 6.95703C15.4219 6.4375 15.1484 5.5625 14.4375 5.45312L10.4453 4.87891L8.64062 1.24219C8.33984 0.613281 7.41016 0.585938 7.08203 1.24219Z" fill="#FF5555"/>
<path d="M28.082 1.24219L26.3047 4.87891L22.2852 5.45312C21.5742 5.5625 21.3008 6.4375 21.8203 6.95703L24.6914 9.77344L24.0078 13.7383C23.8984 14.4492 24.6641 14.9961 25.293 14.668L28.875 12.7812L32.4297 14.668C33.0586 14.9961 33.8242 14.4492 33.7148 13.7383L33.0312 9.77344L35.9023 6.95703C36.4219 6.4375 36.1484 5.5625 35.4375 5.45312L31.4453 4.87891L29.6406 1.24219C29.3398 0.613281 28.4102 0.585938 28.082 1.24219Z" fill="#FF5555"/>
<path d="M49.082 1.24219L47.3047 4.87891L43.2852 5.45312C42.5742 5.5625 42.3008 6.4375 42.8203 6.95703L45.6914 9.77344L45.0078 13.7383C44.8984 14.4492 45.6641 14.9961 46.293 14.668L49.875 12.7812L53.4297 14.668C54.0586 14.9961 54.8242 14.4492 54.7148 13.7383L54.0312 9.77344L56.9023 6.95703C57.4219 6.4375 57.1484 5.5625 56.4375 5.45312L52.4453 4.87891L50.6406 1.24219C50.3398 0.613281 49.4102 0.585938 49.082 1.24219Z" fill="#FF5555"/>
<path d="M70.082 1.24219L68.3047 4.87891L64.2852 5.45312C63.5742 5.5625 63.3008 6.4375 63.8203 6.95703L66.6914 9.77344L66.0078 13.7383C65.8984 14.4492 66.6641 14.9961 67.293 14.668L70.875 12.7812L74.4297 14.668C75.0586 14.9961 75.8242 14.4492 75.7148 13.7383L75.0312 9.77344L77.9023 6.95703C78.4219 6.4375 78.1484 5.5625 77.4375 5.45312L73.4453 4.87891L71.6406 1.24219C71.3398 0.613281 70.4102 0.585938 70.082 1.24219Z" fill="#FF5555"/>
<path d="M91.082 1.24219L89.3047 4.87891L85.2852 5.45312C84.5742 5.5625 84.3008 6.4375 84.8203 6.95703L87.6914 9.77344L87.0078 13.7383C86.8984 14.4492 87.6641 14.9961 88.293 14.668L91.875 12.7812L95.4297 14.668C96.0586 14.9961 96.8242 14.4492 96.7148 13.7383L96.0312 9.77344L98.9023 6.95703C99.4219 6.4375 99.1484 5.5625 98.4375 5.45312L94.4453 4.87891L92.6406 1.24219C92.3398 0.613281 91.4102 0.585938 91.082 1.24219Z" fill="#FF5555"/>
</svg>
